<svg xmlns="http://www.w3.org/2000/svg" viewBox="0 0 662.83 224.56"><defs><style>.cls-1{fill:#e31d3b;}</style></defs><g id="Layer_2" data-name="Layer 2"><g id="Calque_1" data-name="Calque 1"><path class="cls-1" d="M3.25,96.8v44.91H57.87v2.91H3.25v48H66.7v2.91H.3V93.9H64.64v2.9Z"/><path class="cls-1" d="M67,195.8H0V93.59H65v3.52H3.56v44.3H58.18v3.52H3.56v47.35H67Zm-66.4-.61H66.4v-2.3H3V144.32H57.57V142H3V96.8h.3v-.3H64.34V94.2H.61Z"/><path class="cls-1" d="M109.17,171.42,98.08,195.48H95.33l36.61-78.95h2.52l37.08,78.95h-2.63L157.7,171.42Zm24-52.3-23,50h46.45Z"/><path class="cls-1" d="M172,195.79h-3.31L157.5,171.73H109.37l-11.1,24.06H94.85l36.9-79.57h2.91l.08.18Zm-2.92-.61h2l-36.79-78.35h-2.13L95.81,195.18h2.07L109,171.12h48.91Zm-12-25.7H109.73L133.2,118.4Zm-46.46-.61h45.5l-23-49Z"/><path class="cls-1" d="M251.19,122.28,250,124.09c-5.14-3.27-13-5.3-20.14-5.3-14.07,0-23.23,6-23.23,15.24,0,26.43,48.06,12.88,47.83,42.25,0,11.64-10.64,19.2-27.12,19.2-10.07,0-20.71-4.4-27.34-11.06l1.6-1.58c6.06,6.32,16.13,10.39,25.74,10.39,15.11,0,24.83-6.67,24.83-16.95.23-27.11-47.83-13.56-47.83-42.25,0-10.62,10.07-17.5,25.52-17.5C237.34,116.53,245.69,118.79,251.19,122.28Z"/><path class="cls-1" d="M227.38,195.79c-10,0-20.81-4.38-27.56-11.16l-.22-.22,2-2,.22.23c6,6.25,16,10.29,25.52,10.29,14.9,0,24.53-6.53,24.53-16.64.11-13.15-11.18-16.52-23.13-20.09-12.14-3.64-24.7-7.39-24.7-22.16,0-10.82,10.13-17.81,25.82-17.81,7.5,0,15.92,2.28,21.45,5.81l.26.16-1.47,2.33-.26-.17c-5-3.19-12.86-5.26-20-5.26C216,119.09,207,125,207,134c0,12.64,11.08,15.94,22.81,19.44,12.36,3.69,25.14,7.5,25,22.81C254.81,188.13,244,195.79,227.38,195.79Zm-26.91-11.37c6.66,6.54,17.18,10.76,26.91,10.76,16.29,0,26.82-7.42,26.82-18.9.11-14.85-12.44-18.6-24.58-22.22-11.43-3.41-23.25-6.94-23.25-20,0-9.45,9.24-15.55,23.53-15.55,7.11,0,14.93,2,20,5.19l.82-1.29c-5.45-3.38-13.6-5.55-20.87-5.55-15.31,0-25.21,6.75-25.21,17.2,0,14.31,12.34,18,24.27,21.57,11.64,3.48,23.67,7.08,23.56,20.68,0,10.48-9.87,17.25-25.14,17.25-9.56,0-19.62-4-25.75-10.26Z"/><path class="cls-1" d="M317.51,195.48h-2.29V165.1l-32.61-48.57h2.75l31,46.31,30.55-46.31h2.75L317.51,165.1v30.38Z"/><path class="cls-1" d="M317.82,195.79h-2.9v-30.6l-32.88-49h3.48l.09.14,30.76,45.93,30.39-46.07h3.48l-32.42,49Zm-2.29-.61h1.68V165l.05-.08,31.84-48.1h-2l-30.72,46.56L285.2,116.83h-2L315.53,165Z"/><path class="cls-1" d="M455,126.88c0-20.93-14.28-33-39.31-33H380.8V195.48h2.94V160.61h31.95a93.46,93.46,0,0,0,9.42-.59l26.21,35.46H455l-26.64-36C445.43,155.81,455,144.32,455,126.88ZM415.69,157.7H383.74V96.8h31.95c23.12,0,36.36,10.9,36.36,30.08C452.06,146.5,438.81,157.7,415.69,157.7Z"/><path class="cls-1" d="M456.81,196.4h-5.95L424.68,161c-2.68.26-5.7.54-9,.54h-31V196.4h-4.78V93h35.81c25.56,0,40.23,12.36,40.23,33.91,0,17.35-9.22,29.07-26,33.14Zm-5-1.83h1.4l-26.41-35.73,1.39-.3c16.72-3.55,25.93-14.8,25.93-31.66,0-20.38-14-32.08-38.4-32.08h-34v99.77h1.12V159.69h32.86c3.41,0,6.56-.31,9.33-.58l.52-.05Zm-36.09-36H382.83V95.88h32.86c23.69,0,37.28,11.3,37.28,31,0,9.9-3.4,18-9.83,23.47S427.42,158.61,415.69,158.61Zm-31-1.83h31c11.29,0,20.12-2.63,26.26-7.83s9.19-12.59,9.19-22.07c0-18.53-12.92-29.17-35.45-29.17h-31Z"/><path class="cls-1" d="M498.51,171.65l-11,23.83H484.8l36.27-78.21h2.49l36.73,78.21h-2.61l-11.11-23.83Zm23.81-51.81-22.79,49.57h46Z"/><path class="cls-1" d="M561.73,196.4H557.1L546,172.57H499.1l-11,23.83h-4.73l37.11-80h3.66Zm-3.46-1.83h.58L523,118.19h-.43L547,170.33H498.1l24-52.14h-.42l-35.42,76.38h.7l11-23.83h49.22ZM501,168.5h43.15L522.32,122Z"/><path class="cls-1" d="M621.34,117.27c22.32,0,40.58,17.57,40.58,39.16s-18.26,39-40.58,39H590.16V117.27Zm-28.9,76h28.9c21.08,0,38.31-16.56,38.31-36.82s-17.23-36.92-38.31-36.92h-28.9Z"/><path class="cls-1" d="M621.34,196.4H589.25v-80h32.09c22.88,0,41.49,18,41.49,40.07S644.22,196.4,621.34,196.4Zm-30.26-1.83h30.26c21.87,0,39.66-17.11,39.66-38.14s-17.79-38.24-39.66-38.24H591.08Zm30.26-.41H591.52V118.59h29.82c21.63,0,39.22,17,39.22,37.84S643,194.16,621.34,194.16Zm-28-1.83h28c20.62,0,37.39-16.1,37.39-35.9s-16.77-36-37.39-36h-28Z"/><line class="cls-1" x1="568.32" y1="223.95" x2="81.66" y2="223.95"/><rect class="cls-1" x="81.66" y="223.34" width="486.65" height="1.22"/><line class="cls-1" x1="596.61" y1="218.18" x2="53.37" y2="218.18"/><rect class="cls-1" x="53.37" y="217.57" width="543.24" height="1.22"/><line class="cls-1" x1="268.45" y1="73.29" x2="53.37" y2="73.29"/><rect class="cls-1" x="53.37" y="72.68" width="215.08" height="1.22"/><line class="cls-1" x1="596.61" y1="73.29" x2="381.62" y2="73.29"/><rect class="cls-1" x="381.62" y="72.68" width="214.98" height="1.22"/><line class="cls-1" x1="264.55" y1="67.52" x2="81.66" y2="67.52"/><rect class="cls-1" x="81.66" y="66.91" width="182.89" height="1.22"/><line class="cls-1" x1="568.32" y1="67.52" x2="385.33" y2="67.52"/><rect class="cls-1" x="385.33" y="66.91" width="182.98" height="1.22"/><path class="cls-1" d="M325.48,0H325a45.49,45.49,0,0,0-45.49,45v.5A45.51,45.51,0,0,0,324.5,91h.5a45.5,45.5,0,0,0,45.49-45v-.5A45.51,45.51,0,0,0,325.48,0ZM299.7,52l0-.58,0,.58h-.25a6.06,6.06,0,0,1-6.05-5.79v-.26a6.06,6.06,0,0,1,5.8-6.05h.26a6.06,6.06,0,0,1,6.05,5.81h0v.26A6.06,6.06,0,0,1,299.7,52Zm12.8,11.43-.44-.38.44.38a2.17,2.17,0,0,1-1.53.74h-.09a2.12,2.12,0,0,1-1.41-.53,2.18,2.18,0,0,1-.74-1.62,2.13,2.13,0,0,1,.54-1.41c4-4.63,6-9.31,6-14a13.07,13.07,0,0,0-.08-1.53c-.76-8.46-8.13-14.39-8.16-14.41a2.14,2.14,0,0,1-.36-3h0a2.13,2.13,0,0,1,3-.37c.39.32,8.77,6.93,9.79,17.36a18.75,18.75,0,0,1,.1,2C319.6,52.39,317.18,58,312.5,63.39Zm11.6,8.41h0a2.16,2.16,0,0,1-1.57.78h-.08a2.15,2.15,0,0,1-2.15-2.15,2.11,2.11,0,0,1,.5-1.37h0c6.07-7.3,9.1-14.75,9.1-22.21,0-.87,0-1.74-.13-2.61-1.26-13.56-12.39-22.91-12.46-23a2.15,2.15,0,0,1-.78-1.66,2.11,2.11,0,0,1,.49-1.36,2.13,2.13,0,0,1,1.66-.79A2.18,2.18,0,0,1,320,18c.54.46,12.51,10.38,14,25.84.09,1,.14,2,.14,3.06C334.19,55.38,330.78,63.77,324.1,71.8Zm12.15,9.65a2.19,2.19,0,0,1-1.57.78h-.09a2.11,2.11,0,0,1-1.37-.5,2.13,2.13,0,0,1-.28-3h0c8.62-10.37,12.93-21,12.93-31.62,0-1.25-.06-2.49-.17-3.75C343.88,24,328.08,10.74,328,10.66a2.15,2.15,0,0,1-.29-3h0l-.06.08.06-.09h0a2.15,2.15,0,0,1,3-.29,57.36,57.36,0,0,1,8.89,9.73c4.14,5.65,9.33,14.71,10.4,25.84.13,1.4.2,2.8.2,4.2C350.17,58.82,345.47,70.36,336.25,81.45Z"/></g></g></svg>